<svg xmlns="http://www.w3.org/2000/svg" width="1200" height="800" viewBox="0 0 1200 800">
  <defs>
    <linearGradient id="bg" x1="0%" y1="0%" x2="100%" y2="100%">
      <stop offset="0%" style="stop-color:#0a0f1a"/>
      <stop offset="50%" style="stop-color:#1a1f2e"/>
      <stop offset="100%" style="stop-color:#0d1220"/>
    </linearGradient>
  </defs>
  <rect width="1200" height="800" fill="url(#bg)"/>
  <circle cx="50" cy="50" r="1" fill="#fff" opacity="0.6"/>
  <circle cx="150" cy="100" r="1.5" fill="#fff" opacity="0.8"/>
  <circle cx="250" cy="60" r="1" fill="#fff" opacity="0.5"/>
  <rect x="0" y="0" width="240" height="800" fill="rgba(10,15,26,0.95)"/>
  <rect x="20" y="20" width="200" height="60" rx="12" fill="#3b82f6"/>
  <text x="120" y="55" fill="#fff" font-family="Arial" font-size="16" font-weight="bold" text-anchor="middle">星空图书馆</text>
  <rect x="20" y="100" width="200" height="40" rx="10" fill="rgba(59,130,246,0.2)"/>
  <text x="120" y="125" fill="#f1f5f9" font-family="Arial" font-size="14" text-anchor="middle">仪表盘</text>
  <rect x="20" y="150" width="200" height="40" rx="10" fill="transparent"/>
  <text x="120" y="175" fill="#94a3b8" font-family="Arial" font-size="14" text-anchor="middle">图书管理</text>
  <rect x="20" y="200" width="200" height="40" rx="10" fill="transparent"/>
  <text x="120" y="225" fill="#94a3b8" font-family="Arial" font-size="14" text-anchor="middle">借阅记录</text>
  <rect x="260" y="20" width="220" height="100" rx="16" fill="rgba(17,24,39,0.85)" stroke="rgba(148,163,184,0.15)"/>
  <circle cx="310" cy="70" r="28" fill="#3b82f6"/>
  <text x="310" y="78" fill="#fff" font-family="Arial" font-size="20" text-anchor="middle">📚</text>
  <text x="400" y="60" fill="#f1f5f9" font-family="Arial" font-size="28" font-weight="bold" text-anchor="middle">1,234</text>
  <text x="400" y="85" fill="#94a3b8" font-family="Arial" font-size="12" text-anchor="middle">图书总数</text>
  <rect x="500" y="20" width="220" height="100" rx="16" fill="rgba(17,24,39,0.85)" stroke="rgba(148,163,184,0.15)"/>
  <circle cx="550" cy="70" r="28" fill="#10b981"/>
  <text x="550" y="78" fill="#fff" font-family="Arial" font-size="20" text-anchor="middle">✓</text>
  <text x="640" y="60" fill="#f1f5f9" font-family="Arial" font-size="28" font-weight="bold" text-anchor="middle">856</text>
  <text x="640" y="85" fill="#94a3b8" font-family="Arial" font-size="12" text-anchor="middle">可借图书</text>
  <rect x="740" y="20" width="220" height="100" rx="16" fill="rgba(17,24,39,0.85)" stroke="rgba(148,163,184,0.15)"/>
  <circle cx="790" cy="70" r="28" fill="#f59e0b"/>
  <text x="790" y="78" fill="#fff" font-family="Arial" font-size="20" text-anchor="middle">👤</text>
  <text x="880" y="60" fill="#f1f5f9" font-family="Arial" font-size="28" font-weight="bold" text-anchor="middle">128</text>
  <text x="880" y="85" fill="#94a3b8" font-family="Arial" font-size="12" text-anchor="middle">注册用户</text>
  <rect x="960" y="20" width="220" height="100" rx="16" fill="rgba(17,24,39,0.85)" stroke="rgba(148,163,184,0.15)"/>
  <circle cx="1010" cy="70" r="28" fill="#ef4444"/>
  <text x="1010" y="78" fill="#fff" font-family="Arial" font-size="20" text-anchor="middle">⚠</text>
  <text x="1100" y="60" fill="#f1f5f9" font-family="Arial" font-size="28" font-weight="bold" text-anchor="middle">5</text>
  <text x="1100" y="85" fill="#94a3b8" font-family="Arial" font-size="12" text-anchor="middle">逾期未还</text>
  <rect x="260" y="140" width="920" height="300" rx="16" fill="rgba(17,24,39,0.85)" stroke="rgba(148,163,184,0.15)"/>
  <text x="300" y="175" fill="#f1f5f9" font-family="Arial" font-size="16" font-weight="bold">热门图书</text>
  <rect x="280" y="200" width="880" height="40" fill="rgba(30,41,59,0.5)"/>
  <text x="300" y="225" fill="#94a3b8" font-family="Arial" font-size="12">书名</text>
  <text x="600" y="225" fill="#94a3b8" font-family="Arial" font-size="12">作者</text>
  <text x="850" y="225" fill="#94a3b8" font-family="Arial" font-size="12">借阅次数</text>
  <text x="300" y="265" fill="#f1f5f9" font-family="Arial" font-size="13">三体</text>
  <text x="600" y="265" fill="#94a3b8" font-family="Arial" font-size="13">刘慈欣</text>
  <rect x="820" y="250" width="50" height="24" rx="6" fill="#3b82f6"/>
  <text x="845" y="267" fill="#fff" font-family="Arial" font-size="12" text-anchor="middle">89</text>
  <text x="300" y="305" fill="#f1f5f9" font-family="Arial" font-size="13">百年孤独</text>
  <text x="600" y="305" fill="#94a3b8" font-family="Arial" font-size="13">马尔克斯</text>
  <rect x="820" y="290" width="50" height="24" rx="6" fill="#3b82f6"/>
  <text x="845" y="307" fill="#fff" font-family="Arial" font-size="12" text-anchor="middle">76</text>
  <text x="300" y="345" fill="#f1f5f9" font-family="Arial" font-size="13">人类简史</text>
  <text x="600" y="345" fill="#94a3b8" font-family="Arial" font-size="13">尤瓦尔·赫拉利</text>
  <rect x="820" y="330" width="50" height="24" rx="6" fill="#3b82f6"/>
  <text x="845" y="347" fill="#fff" font-family="Arial" font-size="12" text-anchor="middle">65</text>
  <rect x="260" y="460" width="450" height="320" rx="16" fill="rgba(17,24,39,0.85)" stroke="rgba(148,163,184,0.15)"/>
  <text x="300" y="495" fill="#f1f5f9" font-family="Arial" font-size="16" font-weight="bold">分类统计</text>
  <rect x="300" y="520" width="370" height="8" rx="4" fill="rgba(30,41,59,0.8)"/>
  <rect x="300" y="520" width="300" height="8" rx="4" fill="#3b82f6"/>
  <text x="300" y="550" fill="#f1f5f9" font-family="Arial" font-size="13">文学</text>
  <text x="640" y="550" fill="#94a3b8" font-family="Arial" font-size="12">256 本</text>
  <rect x="300" y="580" width="370" height="8" rx="4" fill="rgba(30,41,59,0.8)"/>
  <rect x="300" y="580" width="250" height="8" rx="4" fill="#3b82f6"/>
  <text x="300" y="610" fill="#f1f5f9" font-family="Arial" font-size="13">科技</text>
  <text x="640" y="610" fill="#94a3b8" font-family="Arial" font-size="12">189 本</text>
  <rect x="300" y="640" width="370" height="8" rx="4" fill="rgba(30,41,59,0.8)"/>
  <rect x="300" y="640" width="200" height="8" rx="4" fill="#3b82f6"/>
  <text x="300" y="670" fill="#f1f5f9" font-family="Arial" font-size="13">历史</text>
  <text x="640" y="670" fill="#94a3b8" font-family="Arial" font-size="12">145 本</text>
  <rect x="730" y="460" width="450" height="320" rx="16" fill="rgba(17,24,39,0.85)" stroke="rgba(148,163,184,0.15)"/>
  <text x="770" y="495" fill="#f1f5f9" font-family="Arial" font-size="16" font-weight="bold">逾期提醒</text>
  <rect x="750" y="520" width="410" height="40" fill="rgba(30,41,59,0.3)"/>
  <text x="770" y="545" fill="#f1f5f9" font-family="Arial" font-size="13">三体</text>
  <text x="950" y="545" fill="#94a3b8" font-family="Arial" font-size="12">张三</text>
  <rect x="1050" y="528" width="60" height="24" rx="6" fill="#ef4444"/>
  <text x="1080" y="545" fill="#fff" font-family="Arial" font-size="11" text-anchor="middle">5天</text>
</svg>
