<svg xmlns="http://www.w3.org/2000/svg" width="1200" height="800" viewBox="0 0 1200 800">
  <defs>
    <linearGradient id="bg" x1="0%" y1="0%" x2="100%" y2="100%">
      <stop offset="0%" style="stop-color:#0a0f1a"/>
      <stop offset="50%" style="stop-color:#1a1f2e"/>
      <stop offset="100%" style="stop-color:#0d1220"/>
    </linearGradient>
  </defs>
  <rect width="1200" height="800" fill="url(#bg)"/>
  <circle cx="100" cy="100" r="1" fill="#fff" opacity="0.8"/>
  <circle cx="200" cy="150" r="1.5" fill="#fff" opacity="0.6"/>
  <circle cx="300" cy="80" r="1" fill="#fff" opacity="0.9"/>
  <circle cx="400" cy="200" r="2" fill="#fff" opacity="0.7"/>
  <circle cx="500" cy="120" r="1" fill="#fff" opacity="0.5"/>
  <circle cx="600" cy="180" r="1.5" fill="#fff" opacity="0.8"/>
  <circle cx="700" cy="90" r="1" fill="#fff" opacity="0.6"/>
  <circle cx="800" cy="160" r="2" fill="#fff" opacity="0.9"/>
  <circle cx="900" cy="110" r="1" fill="#fff" opacity="0.7"/>
  <circle cx="1000" cy="190" r="1.5" fill="#fff" opacity="0.5"/>
  <circle cx="1100" cy="130" r="1" fill="#fff" opacity="0.8"/>
  <rect x="400" y="250" width="400" height="300" rx="24" fill="rgba(17,24,39,0.85)" stroke="rgba(148,163,184,0.15)"/>
  <rect x="440" y="300" width="320" height="50" rx="10" fill="rgba(30,41,59,0.8)"/>
  <rect x="440" y="370" width="320" height="50" rx="10" fill="rgba(30,41,59,0.8)"/>
  <rect x="440" y="450" width="320" height="48" rx="12" fill="#3b82f6"/>
  <text x="600" y="330" fill="#94a3b8" font-family="Arial" font-size="14" text-anchor="middle">请输入用户名</text>
  <text x="600" y="400" fill="#94a3b8" font-family="Arial" font-size="14" text-anchor="middle">请输入密码</text>
  <text x="600" y="480" fill="#fff" font-family="Arial" font-size="16" font-weight="bold" text-anchor="middle">登 录</text>
  <circle cx="600" cy="200" r="36" fill="#3b82f6"/>
  <text x="600" y="210" fill="#fff" font-family="Arial" font-size="24" text-anchor="middle">📚</text>
  <text x="600" y="620" fill="#f1f5f9" font-family="Arial" font-size="28" font-weight="bold" text-anchor="middle">星空图书馆</text>
  <text x="600" y="660" fill="#64748b" font-family="Arial" font-size="14" text-anchor="middle">探索知识的浩瀚宇宙</text>
</svg>
